# xmcd
#
# Track frame offsets: 
#        182
#        26472
#        53027
#        104882
#        133352
#        157255
#        181627
#        215952
#        242275
#        269025
#
# Disc length: 4177 seconds
#
# Revision: 10
# Processed by: cddbd v1.5.2PL0 Copyright (c) Steve Scherf et al.
# Submitted via: ExactAudioCopyFreeDBPlugin 1.0
#
DISCID=99104f0a
DTITLE=Various Artist - Plug In and Turn On (Trance Disc 1)
DYEAR=1994
DGENRE=Trance
TTITLE0=Prototype 909 - Transit
TTITLE1=Evolve Now - Extract
TTITLE2=The Drum Club - Sound System - Remix [Uncredited] – Underworld
TTITLE3=GTO - Wonderful
TTITLE4=Human Mesh Dance - Dive
TTITLE5=Terre Thaemlitz - Freakazoids and Robots
TTITLE6=Omicron - The Pill (Cycle High)
TTITLE7=Cabaret Voltaire - Brasilia
TTITLE8=Mothering Noise - Again the Dust
TTITLE9=Mysteries of Science - Softly Sing the Angels
EXTD=
EXTT0=
EXTT1=
EXTT2=
EXTT3=
EXTT4=
EXTT5=
EXTT6=
EXTT7=
EXTT8=
EXTT9=
PLAYORDER=
